# xmcd CD database file
#
# Track frame offsets:
#	150
#	13580
#	27214
#	36412
#	51884
#	66400
#	82147
#	91902
#	100782
#	110581
#
# Disc length: 1700 seconds
#
# Revision: 1
# Processed by: cddbd v1.5.2PL0 Copyright (c) Steve Scherf et al.
# Submitted via: CDex 1.51
#
DISCID=8106a20a
DTITLE=Divers - Les animaux de la jungle
DYEAR=2005
DGENRE=Enfants
TTITLE0=Le lion est mort ce soir/Pow Wow
TTITLE1=Le serpent pyton/Charles Trenet
TTITLE2=Où est mon zèbre/Mireille Darc
TTITLE3=Les malheurs du lion/Thomas Fersen
TTITLE4=Bébé éléphant/Dick Annegarn
TTITLE5=Le vieux singe/Serge Reggiani
TTITLE6=Le royaume des éléphants/Yves Duteil
TTITLE7=Le crocodile/Henri Salvador
TTITLE8=Petit éléphant twist/Dalida
TTITLE9=L'autruche/Gérald Genty
EXTD=YEAR: 2005
EXTT0=
EXTT1=
EXTT2=
EXTT3=
EXTT4=
EXTT5=
EXTT6=
EXTT7=
EXTT8=
EXTT9=
PLAYORDER=
